HIERARCHY
ROOT root
{
	OFFSET 0.000000 0.000000 0.000000
	CHANNELS 6 Xposition Yposition Zposition Zrotation Yrotation Xrotation
	JOINT lhip
	{
		OFFSET 0.058581 -0.082280 -0.017664
		CHANNELS 3 Zrotation Yrotation Xrotation
		JOINT lknee
		{
			OFFSET 0.043451 -0.386469 0.008037
			CHANNELS 3 Zrotation Yrotation Xrotation
			JOINT lankle
			{
				OFFSET -0.014790 -0.426874 -0.037428
				CHANNELS 3 Zrotation Yrotation Xrotation
				JOINT ltoe
				{
					OFFSET 0.041054 -0.060286 0.122042
					CHANNELS 3 Zrotation Yrotation Xrotation
					End Site
					{
						OFFSET 0.000000 0.000000 0.000000
					}
				}
			}
		}
	}
	JOINT rhip
	{
		OFFSET -0.060310 -0.090513 -0.013543
		CHANNELS 3 Zrotation Yrotation Xrotation
		JOINT rknee
		{
			OFFSET -0.043257 -0.383688 -0.004843
			CHANNELS 3 Zrotation Yrotation Xrotation
			JOINT rankle
			{
				OFFSET 0.019056 -0.420046 -0.034562
				CHANNELS 3 Zrotation Yrotation Xrotation
				JOINT rtoe
				{
					OFFSET -0.034840 -0.062106 0.130323
					CHANNELS 3 Zrotation Yrotation Xrotation
					End Site
					{
						OFFSET 0.000000 0.000000 0.000000
					}
				}
			}
		}
	}
	JOINT lowerback
	{
		OFFSET 0.004439 0.124404 -0.038385
		CHANNELS 3 Zrotation Yrotation Xrotation
		JOINT upperback
		{
			OFFSET 0.004488 0.137956 0.026820
			CHANNELS 3 Zrotation Yrotation Xrotation
			JOINT chest
			{
				OFFSET -0.002265 0.056032 0.002855
				CHANNELS 3 Zrotation Yrotation Xrotation
				JOINT lowerneck
				{
					OFFSET -0.013390 0.211636 -0.033468
					CHANNELS 3 Zrotation Yrotation Xrotation
					JOINT upperneck
					{
						OFFSET 0.010113 0.088937 0.050410
						CHANNELS 3 Zrotation Yrotation Xrotation
						End Site
						{
							OFFSET 0.000000 0.000000 0.000000
						}
					}
				}
				JOINT lclavicle
				{
					OFFSET 0.071702 0.114000 -0.018898
					CHANNELS 3 Zrotation Yrotation Xrotation
					JOINT lshoulder
					{
						OFFSET 0.122921 0.045205 -0.019046
						CHANNELS 3 Zrotation Yrotation Xrotation
						JOINT lelbow
						{
							OFFSET 0.255332 -0.015649 -0.022946
							CHANNELS 3 Zrotation Yrotation Xrotation
							JOINT lwrist
							{
								OFFSET 0.265709 0.012698 -0.007375
								CHANNELS 3 Zrotation Yrotation Xrotation
								End Site
								{
									OFFSET 0.000000 0.000000 0.000000
								}
							}
						}
					}
				}
				JOINT rclavicle
				{
					OFFSET -0.082954 0.112472 -0.023707
					CHANNELS 3 Zrotation Yrotation Xrotation
					JOINT rshoulder
					{
						OFFSET -0.113228 0.046853 -0.008472
						CHANNELS 3 Zrotation Yrotation Xrotation
						JOINT relbow
						{
							OFFSET -0.260127 -0.014369 -0.031269
							CHANNELS 3 Zrotation Yrotation Xrotation
							JOINT rwrist
							{
								OFFSET -0.269108 0.006794 -0.006027
								CHANNELS 3 Zrotation Yrotation Xrotation
								End Site
								{
									OFFSET 0.000000 0.000000 0.000000
								}
							}
						}
					}
				}
			}
		}
	}
}
MOTION
Frames: 11
Frame Time: 0.033333
-0.985024 1.285630 0.981062 86.646783 0.968838 85.343839 -2.544189 -0.601444 5.083458 -1.489234 -1.534542 0.121378 4.262758 13.238667 -28.106736 0.000000 -0.000000 0.000000 4.691068 -0.818712 5.944032 -2.368675 -0.693786 3.120980 2.789769 -8.038781 -17.715321 0.000000 -0.000000 0.000000 -0.160490 2.477841 8.530981 0.862479 0.648894 -1.109216 3.012439 -3.314609 0.453125 1.627218 1.726799 -4.830313 0.918005 1.646026 -4.736440 -23.442583 5.081109 4.788776 -56.761374 0.362085 18.548646 -19.519413 -55.628309 43.274847 -19.089148 -18.175675 -20.158246 21.865644 -5.376764 2.449166 53.238857 -7.136405 20.165142 7.184289 51.952048 32.812101 15.039434 5.134940 -0.740164 
-0.986441 1.285276 0.980790 86.477625 0.687095 85.415141 -2.709749 -1.005709 4.282727 -1.801379 -0.972776 1.387950 4.467357 13.174258 -27.859869 0.000000 -0.000000 0.000000 4.325262 -0.957451 5.980829 -2.353145 -0.513824 2.682827 2.931805 -7.829243 -17.547287 0.000000 -0.000000 0.000000 -0.125240 2.672205 8.519167 0.983659 0.444196 -0.880658 2.913692 -3.179367 0.692470 0.597645 4.911389 -4.696878 -0.387567 5.004113 -4.196982 -23.083613 5.736870 4.518947 -55.948069 0.868269 18.422434 -24.423179 -58.944856 48.624749 -20.367345 -19.143749 -20.939451 21.205950 -6.487252 2.412810 51.552612 -7.545654 20.796305 11.696254 60.289592 40.734156 18.450093 5.408708 -0.483391 
-0.988677 1.285013 0.980857 86.443149 0.435815 85.509348 -2.779300 -1.586411 2.852912 -2.269319 -0.351405 3.744401 4.508929 13.087522 -27.814483 0.000000 -0.000000 0.000000 3.980021 -1.007721 5.991172 -2.353565 -0.459603 2.068865 2.841870 -7.587065 -17.237393 0.000000 -0.000000 0.000000 0.257460 2.925385 8.619941 0.856623 0.401576 -0.883923 2.753168 -3.120664 0.942939 -0.538318 8.575246 -4.128972 -1.740758 9.222696 -3.784577 -22.467622 6.002257 4.281793 -55.363855 1.252093 18.383778 -29.888781 -61.499787 54.606021 -22.014668 -19.941955 -21.427506 20.227597 -7.444810 2.388037 50.751701 -7.460072 20.978474 16.915324 66.551530 46.990473 21.558458 6.452722 -1.720046 
-0.992285 1.284594 0.981636 86.867978 0.017743 85.322812 -2.642620 -2.679673 0.205396 -3.410191 0.080047 9.019269 4.532494 12.805339 -27.755560 0.000000 -0.000000 0.000000 3.384876 -1.231384 6.392570 -2.255963 -0.455159 1.140471 2.804944 -7.434160 -17.006254 0.000000 -0.000000 0.000000 0.589890 3.578725 9.114064 0.847631 0.381700 -0.857737 2.672477 -3.018939 1.203751 -1.929859 13.587693 -2.987529 -3.430649 14.803897 -3.150907 -21.938487 5.264413 4.095599 -54.799808 1.071003 18.706667 -35.332503 -63.148317 61.027845 -23.483240 -20.120300 -21.025513 19.145234 -7.994433 2.541225 50.435104 -7.039276 20.982016 22.613880 71.313885 52.576425 24.597146 7.223420 -5.633933 
-0.995001 1.283954 0.981875 87.168538 -0.287556 84.923127 -2.272228 -3.264482 -1.600095 -4.621356 0.242126 13.148786 4.393288 12.330805 -27.408552 0.000000 -0.000000 0.000000 2.953601 -1.346304 6.908879 -2.152588 -0.369357 0.597307 2.693263 -7.391673 -17.098342 0.000000 -0.000000 0.000000 0.626587 4.236734 9.760564 0.948795 0.503226 -0.675556 2.786239 -2.842541 1.373050 -2.804652 16.489185 -2.408839 -4.338846 17.834670 -2.988150 -21.740608 4.157269 3.949313 -54.641123 0.523330 19.012073 -37.434989 -63.538834 63.970453 -23.849145 -19.829986 -20.506486 18.700536 -7.915509 2.744720 50.218862 -6.650024 20.872644 25.811289 72.958661 56.368587 26.078668 7.206029 -6.692699 
-1.000062 1.284109 0.981489 87.945297 -0.713140 84.366990 -1.384262 -3.827016 -4.583642 -6.846863 0.950368 19.301329 3.775271 10.854428 -26.550789 0.000000 -0.000000 0.000000 2.178027 -1.629694 7.552674 -1.842391 -0.573041 -0.073455 2.323269 -7.082173 -17.051943 0.000000 -0.000000 0.000000 0.874508 5.226441 10.937647 1.027368 0.664130 -0.476463 2.936194 -2.626238 1.582319 -3.901561 20.021340 -1.868144 -5.330551 21.379748 -2.877877 -21.604750 2.198515 3.719145 -54.729511 -0.560486 19.432127 -38.848278 -63.587938 66.435044 -24.229680 -19.575331 -19.855006 18.258221 -7.494675 3.137158 49.769858 -6.132609 20.716846 30.342416 74.273039 62.231135 27.928436 7.232600 -6.750044 
-1.005276 1.285156 0.980431 89.490861 -1.178939 84.061885 -0.188067 -4.108124 -8.181215 -9.280648 1.820663 25.562332 2.795207 8.160128 -24.647213 0.000000 -0.000000 0.000000 1.209259 -2.429842 8.328854 -1.444335 -1.123184 -1.392957 1.859491 -6.584906 -16.475628 0.000000 -0.000000 0.000000 1.049418 6.174803 11.741667 1.190616 0.420928 -0.164604 3.030596 -2.445203 1.591239 -4.553745 22.943557 -1.074971 -5.631211 24.226530 -2.485702 -21.697288 -0.027387 3.860776 -54.870625 -1.768593 19.805811 -39.537882 -63.463932 67.822990 -24.110457 -19.231033 -19.165984 18.072098 -6.776480 3.898917 49.382156 -5.939776 20.490587 33.845466 75.445176 66.899415 29.457139 7.138955 -7.024852 
-1.009446 1.286071 0.978966 91.206680 -1.644272 83.913097 1.002179 -4.041215 -11.406228 -11.344016 2.261636 30.686890 1.494102 5.204476 -22.483019 0.000000 -0.000000 0.000000 0.278416 -3.448929 9.255941 -1.101832 -1.648928 -3.146235 1.482679 -6.141554 -15.778211 0.000000 -0.000000 0.000000 1.026528 6.971427 12.008936 1.328700 -0.047876 0.135108 2.993526 -2.242883 1.606798 -4.477496 25.051052 0.096065 -5.063659 26.118056 -1.559975 -21.625767 -1.920353 4.246154 -54.846052 -2.756390 20.163250 -41.178884 -63.378593 70.019800 -22.913785 -18.785541 -18.549694 17.901472 -6.277861 4.681896 49.398357 -5.827510 20.047310 38.009010 76.321899 72.066763 29.979066 6.956138 -7.287132 
-1.012290 1.286679 0.977965 92.222021 -1.984482 83.572915 2.087088 -3.539580 -13.044227 -12.381297 2.594830 34.045431 0.322693 3.510857 -21.660992 0.000000 -0.000000 0.000000 -0.424850 -4.253031 9.936278 -0.855542 -1.895714 -4.013944 1.270855 -5.727256 -15.421735 0.000000 -0.000000 0.000000 0.935617 7.514487 12.182176 1.353797 -0.275041 0.500626 2.865446 -1.910515 1.661240 -3.800585 26.357969 1.383631 -4.362760 27.280952 -0.431807 -21.448398 -2.868748 4.346621 -54.586909 -3.171139 20.414090 -44.219760 -63.630178 73.332540 -21.384847 -18.232936 -18.199785 17.774350 -6.103851 5.064533 49.507305 -5.654329 19.757081 43.410447 76.888938 78.245367 30.445119 6.750311 -6.744976 
-1.014127 1.287696 0.978319 92.327307 -2.257343 83.068970 3.161344 -2.659926 -12.923070 -11.474397 3.584852 36.061196 0.768212 4.934079 -22.387026 0.000000 -0.000000 0.000000 -0.934192 -4.461861 9.964069 -0.765497 -1.881207 -3.425949 1.226805 -5.556401 -15.476390 0.000000 -0.000000 0.000000 0.666129 7.761434 12.395740 1.249887 0.086851 0.678688 2.851125 -1.574833 1.769113 -2.947344 26.790087 2.983554 -3.877025 28.310923 0.622982 -21.707276 -2.453754 4.267480 -54.020079 -2.721703 20.151563 -48.693168 -64.698154 77.476752 -18.872301 -17.255859 -17.715085 17.781138 -6.246744 5.107292 49.380306 -5.513247 19.687434 50.424360 77.809272 84.976808 29.820488 6.570103 -6.241819 
-1.014416 1.288844 0.979131 92.159057 -2.341796 82.896778 3.818943 -2.035694 -11.903736 -9.543791 4.489349 36.210064 1.745887 7.480649 -22.793707 0.000000 -0.000000 0.000000 -1.026986 -4.262044 9.649206 -0.869037 -1.811726 -2.673036 1.167498 -5.751284 -15.594847 0.000000 -0.000000 0.000000 0.379157 7.561528 12.169374 1.118942 0.470050 0.641638 2.845628 -1.441016 1.930645 -2.493002 26.621246 4.049695 -3.714859 28.930136 1.009473 -21.924830 -1.167716 4.241779 -53.669012 -2.030454 19.635159 -52.573235 -65.949251 80.712010 -17.104203 -16.653680 -18.182830 17.744654 -6.773783 5.046660 49.262890 -5.387753 19.808951 56.407003 78.710252 90.234606 28.689589 6.649692 -6.107757 
